<svg enable-background="new 0 0 100 100" height="512" viewBox="0 0 100 100" width="512" xmlns="http://www.w3.org/2000/svg"><ellipse cx="48.986" cy="73.811" fill="#dad7dc" rx="43.648" ry="18.292"/><path d="m48.9859657 86.0909348c-10.7214546 0-21.124033-1.7826309-28.5403976-4.8906708-6.2494745-2.6188965-9.0958824-5.6663895-9.0958824-7.3895721s2.8464079-4.7710495 9.0958824-7.389946c7.4163647-3.1080437 17.818943-4.8906708 28.5403976-4.8906708s21.1240349 1.7826271 28.5400352 4.8906708c6.2494736 2.6188965 9.0958786 5.6667633 9.0958786 7.389946s-2.846405 4.7706757-9.0958786 7.3895721c-7.4160003 3.1080398-17.8185767 4.8906708-28.5400352 4.8906708z" fill="#b0b1b5"/><path d="m76.2992859 47.767849s6.5833511-3.4675827 12.9813766-2.5034981c0 0 4.7142715.8278732 5.3462982 6.2227402 0 0 .8954773 6.181076-6.3358536 11.6512642 0 0-11.6312103 8.7637825-24.6025543 9.1143608l2.8046188-3.850296s11.3981476-1.7054367 20.4055099-8.1223793c1.5840454-1.1284904 2.957901-2.5414009 3.9388199-4.2208252 1.2375031-2.118721 2.0694427-4.9391365-.5927505-6.7632294-2.5409927-1.7410507-5.3851471-1.208374-7.4744873-.3415985-1.6231689.6733856-2.9506607 1.8854294-3.9088974 3.3584976-.9042053 1.3899994-2.4166336 2.9283562-4.0530548 1.2484856-2.6182708-2.68779 1.4909745-5.7935219 1.4909745-5.7935219z" fill="#f4f4f6"/><path d="m81.143486 39.0932121s-3.5625992 42.9631691-32.1554146 42.0698128c-28.5971642.8933563-32.1597099-42.0698128-32.1597099-42.0698128z" fill="#e6e7e8"/><ellipse cx="48.986" cy="39.094" fill="#dad7dc" rx="32.158" ry="8.674"/><path d="m48.9859734 47.7678757c12.0121346 0 22.4787331-1.7777863 28.0001335-4.4098892-2.1544571-3.6482391-13.8682213-6.4367371-28.0001335-6.4367371-14.1318588 0-25.8456726 2.7886047-28.0001335 6.4367371 5.5214042 2.6321029 15.9880027 4.4098892 28.0001335 4.4098892z" fill="#d6b251"/><g fill="#e6e7e8"><path d="m40.5049667 25.5832329c-.2441635 0-.4883308-.0931931-.6747169-.2795811-.3727722-.3727722-.3727722-.9766617 0-1.3494358.8741531-.8741493 1.3550262-2.0353355 1.3550262-3.2692127 0-1.2357407-.4808731-2.396925-1.3550262-3.2692127-2.5478973-2.5478992-2.5478973-6.6912632 0-9.2391624.3727722-.3727722.9766655-.3727722 1.3494377 0s.3727722.9766636 0 1.3494358c-.8741531.8741512-1.3550301 2.0353374-1.3550301 3.2710772 0 1.2338762.4808769 2.3950624 1.3550301 3.2692137 1.2338753 1.2320118 1.9141846 2.8722115 1.9141846 4.6186485 0 1.7445755-.6803093 3.3847733-1.9141846 4.6186485-.1863861.1863879-.4305534.279581-.6747208.279581z"/><path d="m48.9841309 25.5832329c-.2441673 0-.4883308-.0931931-.6747169-.2795811-.3727722-.3727722-.3727722-.9766617 0-1.3494358.8741493-.8741493 1.3550262-2.0353355 1.3550262-3.2692127 0-1.2357407-.4808769-2.396925-1.3550262-3.2692127-2.5479012-2.5478992-2.5479012-6.6912632 0-9.2391624.3727722-.3727722.9766617-.3727722 1.3494339 0s.3727722.9766636 0 1.3494358c-.8741493.8741512-1.3550262 2.0353374-1.3550262 3.2710772 0 1.2338762.4808769 2.3950624 1.3550262 3.2692137 1.2338753 1.2320118 1.9141884 2.8722115 1.9141884 4.6186485 0 1.7445755-.6803131 3.3847733-1.9141884 4.6186485-.1863862.1863879-.4305497.279581-.674717.279581z"/><path d="m57.463295 25.5832329c-.2441673 0-.4883347-.0931931-.6747208-.2795811-.3727722-.3727722-.3727722-.9766617 0-1.3494358.8741531-.8741493 1.3550301-2.0353355 1.3550301-3.2692127 0-1.2357407-.4808769-2.396925-1.3550301-3.2692127-2.5478973-2.5478992-2.5478973-6.6912632 0-9.2391624.3727722-.3727722.9766655-.3727722 1.3494377 0s.3727722.9766636 0 1.3494358c-.8741531.8741512-1.3550301 2.0353374-1.3550301 3.2710772 0 1.2338762.4808769 2.3950624 1.3550301 3.2692137 1.2338753 1.2320118 1.9141846 2.8722115 1.9141846 4.6186485 0 1.7445755-.6803093 3.3847733-1.9141846 4.6186485-.1863861.1863879-.4305534.279581-.6747169.279581z"/></g></svg>